<?xml version="1.0" standalone="no"?>
<!DOCTYPE svg PUBLIC "-//W3C//DTD SVG 20010904//EN"
 "http://www.w3.org/TR/2001/REC-SVG-20010904/DTD/svg10.dtd">
<svg version="1.0" xmlns="http://www.w3.org/2000/svg"
 width="468pt" height="468pt" viewBox="0 0 468 468"
 preserveAspectRatio="xMidYMid meet">
<metadata>
Created by potrace 1.8, written by Peter Selinger 2001-2007
</metadata>
<g transform="translate(0,468) scale(0.078000,-0.078000)"
fill="#000000" stroke="none">
<path d="M1168 5844 c-12 -13 -15 -32 -11 -102 3 -59 0 -98 -9 -122 -22 -58
-72 -130 -90 -130 -23 0 -123 93 -138 129 -6 16 -19 32 -28 35 -9 4 -33 16
-52 26 -19 11 -47 20 -62 20 -36 0 -71 -34 -63 -61 11 -34 -68 -249 -99 -271
-18 -12 -106 30 -171 83 -11 9 -55 28 -98 43 -74 26 -80 26 -97 11 -26 -24
-31 -53 -33 -212 -1 -97 3 -148 12 -171 9 -21 12 -52 8 -87 -5 -49 -3 -59 20
-85 18 -22 24 -38 20 -58 -4 -17 7 -63 30 -125 19 -56 32 -108 29 -121 -6 -25
0 -36 35 -58 19 -12 28 -28 32 -60 11 -77 23 -98 57 -98 38 0 48 22 30 64 -7
17 -14 49 -15 71 -3 62 -4 65 -18 65 -23 0 -47 35 -47 68 0 17 -14 69 -30 114
-18 48 -28 93 -25 106 4 15 -3 34 -20 56 -23 30 -26 42 -24 103 2 38 -3 78 -9
90 -18 33 -16 253 2 253 25 0 82 -28 151 -74 37 -26 76 -46 86 -46 9 0 31 -12
48 -26 46 -38 72 -30 94 31 10 28 25 57 33 66 19 21 74 185 74 221 0 52 25 35
99 -69 42 -58 128 -113 177 -113 21 0 44 4 49 8 17 12 102 145 111 172 4 14 6
58 5 98 -2 59 0 72 13 72 8 0 17 -4 21 -9 3 -5 30 -15 60 -22 30 -7 77 -28
107 -49 61 -41 148 -159 173 -232 9 -25 22 -52 30 -58 8 -6 26 -47 40 -90 22
-67 30 -80 55 -89 19 -6 34 -22 44 -45 11 -27 21 -36 38 -36 48 0 58 29 32 96
-12 32 -23 44 -47 51 -26 7 -34 17 -47 59 -8 28 -24 63 -36 80 -12 16 -24 40
-27 54 -4 14 -36 70 -72 125 -36 54 -65 103 -65 107 0 4 -4 8 -9 8 -5 0 -40
20 -77 45 -36 25 -75 45 -85 45 -9 0 -56 14 -102 30 -47 17 -87 30 -89 30 -2
0 -11 -7 -20 -16z"/>
<path d="M1040 5108 c-68 -47 -136 -219 -160 -408 -42 -334 -43 -342 -60 -725
-16 -381 -11 -944 16 -1702 l5 -163 -28 -11 -28 -11 27 -21 c14 -12 28 -33 30
-47 3 -24 1 -25 -39 -22 -32 3 -43 0 -43 -11 0 -18 17 -32 55 -44 22 -7 30
-16 32 -37 l2 -27 -53 6 c-36 5 -56 3 -61 -4 -12 -20 13 -37 71 -50 49 -11 58
-11 72 3 14 14 14 17 -2 34 -16 19 -16 21 10 51 20 24 24 35 15 44 -20 20 -13
57 14 67 29 11 32 28 9 45 -24 17 -9 55 22 55 30 0 43 26 21 43 -20 16 -31 54
-18 62 6 3 20 1 32 -6 17 -8 24 -8 35 3 19 18 4 37 -42 53 -36 12 -39 16 -42
54 -2 23 -1 41 3 41 3 0 22 -11 43 -24 53 -34 77 -39 93 -20 11 14 10 18 -6
30 -11 7 -26 18 -32 24 -7 6 -32 13 -56 16 l-44 6 -9 277 c-19 580 -7 1414 26
1816 21 265 58 423 115 499 18 23 68 25 118 5 40 -16 165 -99 232 -153 147
-119 337 -301 561 -537 252 -265 322 -342 554 -608 160 -184 165 -192 169
-266 3 -65 11 -81 36 -71 15 5 16 15 10 64 -14 99 -14 97 25 97 l35 0 5 -70
c4 -56 8 -70 23 -73 20 -4 20 -3 17 98 -2 82 -10 101 -35 80 -19 -16 -9 -25
-151 140 -54 63 -101 117 -104 120 -3 3 -34 39 -70 80 -35 41 -87 100 -115
130 -27 30 -70 77 -93 105 -205 233 -564 595 -722 728 -122 102 -273 205 -347
235 -68 29 -130 29 -173 0z m-127 -2733 c-3 -8 -9 -15 -14 -15 -10 0 -12 24
-3 33 11 11 24 -3 17 -18z"/>
<path d="M4775 5108 c-73 -31 -225 -135 -342 -233 -163 -137 -482 -459 -709
-715 -21 -24 -60 -67 -85 -95 -47 -51 -306 -348 -389 -444 -35 -41 -49 -52
-67 -48 -13 2 -27 -1 -30 -7 -7 -11 -30 -176 -39 -281 -2 -27 -11 -102 -19
-165 -7 -63 -19 -194 -25 -290 -21 -331 -41 -483 -60 -449 -16 28 -39 242 -56
509 -25 407 -29 443 -44 478 -8 17 -18 32 -22 32 -12 0 3 -524 22 -750 20
-239 50 -458 73 -529 16 -48 43 -53 61 -9 47 111 100 682 105 1127 2 119 5
147 18 156 10 8 18 35 22 76 6 64 6 64 40 67 l33 3 -3 -83 c-4 -78 -3 -83 16
-83 18 0 21 9 26 78 4 45 13 85 21 95 83 97 237 274 342 392 133 150 144 162
436 469 339 356 627 589 759 615 30 5 38 2 67 -30 19 -19 34 -42 34 -50 0 -8
4 -22 9 -32 40 -79 80 -385 98 -752 11 -211 10 -1110 -1 -1462 -9 -285 -9
-288 -30 -288 -27 0 -98 -35 -108 -54 -5 -8 -2 -19 7 -26 13 -10 25 -8 66 13
37 20 51 23 55 13 10 -25 -15 -65 -51 -80 -38 -16 -43 -27 -21 -45 10 -9 20
-9 39 0 56 26 80 -23 26 -54 -39 -22 -33 -42 15 -42 38 0 58 -17 49 -42 -3 -7
-13 -13 -23 -13 -22 0 -44 -25 -35 -41 5 -7 21 -9 42 -6 29 5 35 2 43 -16 8
-21 9 -21 9 4 1 17 9 29 26 37 31 14 33 40 3 44 -23 3 -23 4 -21 153 1 83 6
319 12 525 13 459 13 1088 0 1310 -17 296 -19 335 -24 356 -3 12 -7 50 -11 85
-7 77 -41 282 -54 324 -5 17 -16 53 -25 80 -22 74 -71 153 -108 175 -42 26
-108 25 -172 -2z"/>
<path d="M1208 4623 c-46 -30 -91 -128 -118 -258 -6 -33 -14 -69 -17 -80 -39
-157 -57 -824 -39 -1452 l9 -323 -26 0 c-35 0 -35 -24 -2 -46 14 -9 25 -21 25
-28 0 -6 20 -12 45 -14 34 -2 45 1 45 13 0 8 -9 19 -20 25 -24 13 -26 43 -5
60 12 10 19 10 27 2 7 -7 22 -12 35 -12 31 0 30 27 -1 41 -15 7 -24 19 -23 33
0 11 -3 29 -7 39 -13 27 26 22 54 -8 26 -27 65 -30 65 -5 0 8 -25 32 -55 53
-46 32 -56 44 -60 75 -11 75 -11 963 0 1152 13 230 32 406 55 509 38 163 67
174 215 83 161 -100 495 -429 859 -844 101 -115 137 -148 176 -158 19 -6 25
-21 41 -107 3 -15 12 -23 24 -23 28 0 31 13 14 61 -8 24 -14 56 -12 71 2 22
-23 55 -136 185 -322 367 -712 761 -839 846 -23 15 -48 34 -57 42 -8 7 -42 28
-75 45 -75 40 -157 49 -197 23z"/>
<path d="M4656 4633 c-10 -3 -35 -14 -55 -26 -20 -11 -45 -25 -56 -31 -161
-88 -548 -469 -963 -950 -80 -92 -100 -121 -92 -131 8 -9 8 -20 2 -32 -6 -10
-13 -39 -17 -65 -7 -44 -6 -48 14 -48 22 0 27 12 39 95 7 48 9 50 39 50 18 0
36 5 41 10 29 32 127 142 192 215 443 499 801 820 914 820 93 0 136 -419 136
-1322 0 -268 -4 -497 -9 -510 -5 -13 -27 -36 -50 -51 -25 -17 -41 -35 -41 -47
0 -27 24 -25 64 5 l33 25 17 -24 c22 -35 21 -40 -19 -59 -19 -9 -35 -23 -35
-32 0 -20 44 -20 60 0 17 20 40 19 56 -2 19 -26 18 -29 -21 -52 -34 -20 -45
-44 -25 -56 11 -7 115 49 126 66 8 14 -12 34 -34 34 -16 0 -17 50 -23 730 -6
653 -13 870 -34 1000 -32 208 -62 299 -121 362 -27 28 -38 33 -75 32 -24 -1
-53 -4 -63 -6z"/>
<path d="M2922 3558 c-4 -13 -7 -54 -6 -93 1 -67 2 -70 25 -70 23 0 24 4 30
75 3 41 1 83 -3 93 -12 24 -37 21 -46 -5z"/>
<path d="M3035 3567 c-3 -7 -5 -49 -3 -93 3 -71 5 -79 23 -79 19 0 20 7 20 90
0 78 -2 90 -18 93 -9 2 -19 -3 -22 -11z"/>
<path d="M2575 3540 c-10 -15 16 -163 30 -175 7 -6 12 -47 13 -113 1 -57 4
-108 8 -113 11 -18 16 -757 5 -763 -39 -24 -111 271 -181 739 -12 77 -27 152
-35 167 -11 23 -11 29 1 39 19 15 18 34 -6 99 -23 63 -45 89 -61 73 -7 -7 -5
-30 9 -79 11 -38 25 -107 31 -154 15 -114 28 -196 47 -310 9 -52 20 -117 25
-145 11 -67 27 -150 39 -205 6 -25 14 -67 19 -95 22 -113 83 -331 104 -369 12
-23 29 -41 37 -41 33 0 42 71 41 320 -1 312 -6 499 -15 513 -3 6 -10 68 -16
139 -14 199 -40 436 -50 461 -10 23 -34 30 -45 12z"/>
<path d="M3387 3543 c-4 -3 -7 -18 -7 -32 0 -14 -7 -48 -15 -76 -14 -46 -14
-51 2 -62 32 -24 34 -21 53 86 6 35 9 69 6 77 -6 15 -28 19 -39 7z"/>
<path d="M3612 3478 c-18 -36 -42 -109 -42 -129 0 -31 37 -23 54 13 9 17 16
39 16 49 0 9 5 19 10 21 14 4 1 68 -15 68 -6 0 -17 -10 -23 -22z"/>
<path d="M2233 3464 c-8 -21 38 -165 55 -171 30 -12 36 15 17 79 -28 96 -56
133 -72 92z"/>
<path d="M3729 3464 c-15 -18 -49 -119 -49 -147 0 -13 6 -17 22 -15 16 2 27
19 47 75 23 66 24 74 10 88 -14 15 -17 14 -30 -1z"/>
<path d="M2124 3426 c-4 -9 4 -47 17 -84 19 -53 29 -68 47 -70 34 -5 35 16 4
93 -29 69 -56 93 -68 61z"/>
<path d="M3831 3423 c-16 -31 -51 -127 -51 -141 0 -8 9 -12 26 -10 20 2 30 14
50 63 13 33 23 69 22 80 -4 26 -34 31 -47 8z"/>
<path d="M2020 3385 c-18 -22 38 -149 69 -153 34 -5 34 21 -1 93 -35 74 -48
85 -68 60z"/>
<path d="M3915 3331 c-40 -81 -43 -101 -15 -101 23 0 83 109 78 143 -6 42 -28
27 -63 -42z"/>
<path d="M1913 3339 c-9 -9 -3 -29 23 -80 28 -58 38 -69 59 -69 14 0 25 4 25
8 0 16 -75 145 -85 149 -6 2 -16 -2 -22 -8z"/>
<path d="M4017 3278 c-37 -75 -38 -88 -8 -88 22 0 87 121 78 145 -13 31 -35
13 -70 -57z"/>
<path d="M3376 3273 c-3 -38 -11 -128 -16 -201 -5 -74 -13 -139 -17 -145 -17
-27 -20 -725 -4 -784 24 -87 54 -62 99 84 41 136 86 333 122 533 6 36 15 85
20 110 5 25 14 81 20 125 6 44 15 103 20 130 17 97 22 175 11 175 -23 0 -26
-12 -81 -354 -31 -188 -71 -394 -88 -451 -16 -50 -54 -125 -64 -125 -10 0 -4
622 8 858 5 94 3 112 -9 112 -10 0 -16 -18 -21 -67z"/>
<path d="M1812 3283 c-14 -25 51 -143 78 -143 31 0 29 25 -9 90 -40 69 -55 81
-69 53z"/>
<path d="M4123 3242 c-40 -63 -47 -95 -21 -100 21 -4 100 111 92 133 -13 33
-35 23 -71 -33z"/>
<path d="M1711 3222 c-14 -27 54 -132 85 -132 34 0 30 19 -16 89 -43 65 -54
71 -69 43z"/>
<path d="M4245 3217 c-46 -65 -73 -112 -69 -119 3 -4 15 -8 28 -8 17 0 32 15
58 57 20 31 34 63 31 69 -9 23 -33 23 -48 1z"/>
<path d="M1611 3162 c-14 -26 64 -132 96 -132 14 0 23 6 23 16 0 17 -88 134
-101 134 -5 0 -13 -8 -18 -18z"/>
<path d="M4343 3157 c-39 -42 -83 -110 -77 -118 13 -22 45 -5 83 42 44 55 49
70 28 88 -11 8 -19 5 -34 -12z"/>
<path d="M2803 3096 c-33 -28 -68 -99 -78 -161 l-7 -40 24 45 c33 60 65 116
85 146 22 35 11 39 -24 10z"/>
<path d="M3200 3097 c0 -7 4 -17 9 -22 10 -11 43 -68 78 -135 28 -55 30 -30 3
46 -28 80 -90 157 -90 111z"/>
<path d="M1510 3087 c0 -25 84 -116 108 -116 34 -1 27 24 -20 80 -42 47 -88
67 -88 36z"/>
<path d="M4396 3046 c-25 -30 -46 -59 -46 -65 0 -6 12 -11 28 -10 20 0 36 12
65 50 37 49 42 79 14 79 -8 0 -35 -24 -61 -54z"/>
<path d="M1426 3014 c-4 -10 12 -35 49 -72 51 -54 55 -56 72 -40 16 17 15 20
-27 65 -66 70 -82 78 -94 47z"/>
<path d="M4486 2978 c-48 -54 -56 -75 -31 -85 28 -10 120 93 109 121 -10 27
-29 18 -78 -36z"/>
<path d="M1345 2944 c-15 -16 -12 -21 41 -75 47 -48 61 -56 76 -48 10 5 18 15
18 22 0 13 -100 117 -112 117 -4 0 -14 -7 -23 -16z"/>
<path d="M4567 2902 c-45 -45 -55 -60 -45 -70 20 -20 31 -14 87 42 46 47 52
57 41 70 -7 9 -15 16 -19 16 -4 0 -32 -26 -64 -58z"/>
<path d="M1267 2862 c-16 -17 -14 -21 37 -65 57 -49 96 -61 96 -29 0 15 -28
43 -101 100 -13 10 -19 9 -32 -6z"/>
<path d="M4650 2833 c-57 -48 -69 -76 -35 -81 13 -2 41 15 75 46 48 43 53 51
41 66 -7 9 -16 16 -20 15 -3 0 -31 -21 -61 -46z"/>
<path d="M1197 2783 c-17 -16 -3 -42 42 -76 46 -35 70 -44 84 -31 11 12 -6 34
-55 74 -52 41 -60 45 -71 33z"/>
<path d="M4730 2749 c-56 -42 -70 -71 -38 -77 26 -5 118 69 115 92 -3 32 -19
28 -77 -15z"/>
<path d="M2462 2378 c-5 -7 -28 -50 -51 -95 -39 -78 -53 -143 -31 -143 6 0 10
6 10 14 0 8 3 16 8 18 11 4 92 183 92 202 0 19 -14 21 -28 4z"/>
<path d="M3540 2372 c0 -10 18 -56 40 -101 22 -45 40 -86 40 -91 0 -6 5 -10
10 -10 6 0 10 -8 10 -17 0 -13 3 -14 11 -6 18 18 3 69 -44 157 -42 80 -67 105
-67 68z"/>
<path d="M1766 2204 c-110 -27 -204 -80 -281 -159 -120 -124 -183 -259 -191
-410 l-4 -80 -42 2 c-24 1 -74 7 -113 13 -90 13 -243 23 -275 18 l-25 -4 28
-12 c40 -17 280 -47 360 -45 l67 1 0 -31 c1 -49 54 -200 95 -267 45 -74 174
-188 259 -230 100 -49 189 -70 300 -70 165 0 279 41 409 149 131 109 207 239
235 405 14 81 14 105 3 173 -20 125 -42 182 -111 283 -94 139 -213 225 -366
264 -78 20 -266 20 -348 0z m326 -63 c134 -35 215 -86 298 -190 104 -130 146
-250 137 -396 -10 -161 -67 -288 -179 -396 -122 -117 -256 -167 -433 -163
-159 4 -275 56 -399 178 -72 71 -116 153 -142 262 -22 95 -15 256 16 339 30
79 99 185 158 242 122 119 355 172 544 124z"/>
<path d="M1858 1859 c-126 -34 -212 -148 -212 -284 0 -166 126 -295 287 -295
79 0 119 13 180 59 84 63 127 156 120 260 -5 96 -80 203 -169 242 -46 21 -160
31 -206 18z m194 -107 c20 -12 48 -41 64 -64 25 -36 29 -50 29 -113 0 -61 -4
-77 -27 -113 -41 -61 -107 -96 -182 -96 -69 1 -106 16 -152 66 -94 100 -64
263 61 332 43 24 160 17 207 -12z"/>
<path d="M3875 2201 c-170 -49 -291 -154 -378 -328 -122 -241 -75 -565 110
-748 90 -90 170 -140 270 -171 77 -25 94 -26 201 -21 184 9 302 60 427 184 79
79 138 171 160 253 9 30 20 63 25 72 6 10 10 34 10 54 l0 37 37 -6 c66 -11
386 33 399 55 8 12 -182 4 -286 -12 -36 -6 -84 -13 -107 -16 l-43 -6 0 59 c0
122 -58 269 -155 390 -85 107 -195 176 -330 208 -84 20 -264 18 -340 -4z m307
-56 c223 -47 399 -233 447 -473 53 -262 -132 -564 -398 -653 -96 -33 -273 -31
-357 3 -194 78 -337 252 -368 446 -33 213 23 391 169 537 133 134 309 182 507
140z"/>
<path d="M3984 1857 c-87 -18 -168 -95 -201 -192 -19 -58 -13 -155 15 -218 60
-135 240 -206 376 -147 60 25 126 88 156 147 32 63 35 188 6 245 -29 59 -94
127 -143 149 -48 22 -146 30 -209 16z m172 -96 c68 -31 124 -117 124 -191 0
-45 -51 -138 -89 -163 -85 -56 -163 -59 -244 -7 -141 89 -115 323 42 370 47
15 125 10 167 -9z"/>
<path d="M5139 1984 c-49 -15 -66 -35 -45 -53 9 -8 28 -6 67 5 59 17 85 36 75
53 -9 14 -40 13 -97 -5z"/>
<path d="M5162 1880 c-42 -10 -57 -24 -48 -45 4 -12 14 -15 43 -10 73 13 104
26 101 43 -4 20 -45 25 -96 12z"/>
<path d="M715 1770 c-12 -19 15 -36 78 -49 45 -10 61 -10 72 -1 33 28 8 45
-81 55 -43 5 -64 3 -69 -5z"/>
<path d="M5168 1767 c-27 -7 -38 -16 -38 -29 0 -26 16 -29 85 -15 50 10 61 16
63 35 3 20 -1 22 -35 21 -21 -1 -55 -6 -75 -12z"/>
<path d="M700 1652 c0 -23 12 -28 92 -38 49 -5 59 -4 64 11 10 25 -5 33 -83
41 -69 6 -73 6 -73 -14z"/>
<path d="M5177 1663 c-28 -5 -54 -37 -37 -48 17 -10 139 7 152 22 23 28 -27
39 -115 26z"/>
<path d="M692 1538 c3 -21 9 -23 86 -26 82 -3 82 -3 82 23 0 25 -1 25 -86 25
-83 0 -85 -1 -82 -22z"/>
<path d="M5137 1546 c-10 -25 16 -36 90 -36 60 0 74 3 82 19 6 10 7 21 4 25
-3 3 -43 6 -89 6 -60 0 -83 -4 -87 -14z"/>
<path d="M1188 1475 c-2 -3 -60 -11 -129 -19 -68 -9 -139 -18 -158 -22 -24 -5
-36 -3 -41 7 -6 11 -26 13 -87 9 -70 -4 -78 -7 -78 -25 0 -19 8 -20 118 -23
69 -1 172 4 245 14 70 9 146 18 170 21 23 3 42 9 42 14 0 19 -67 39 -82 24z"/>
<path d="M4727 1463 c-15 -14 -5 -21 46 -27 28 -4 79 -11 112 -17 33 -5 139
-12 235 -15 148 -5 177 -4 188 8 19 24 -4 36 -73 38 -78 3 -81 3 -99 -15 -11
-11 -21 -13 -40 -5 -29 11 -267 40 -325 40 -21 0 -41 -3 -44 -7z"/>
<path d="M697 1333 c-4 -3 -7 -15 -7 -25 0 -16 9 -18 80 -18 67 0 81 3 89 19
6 10 7 21 4 25 -8 8 -158 8 -166 -1z"/>
<path d="M5135 1330 c-16 -26 18 -40 91 -40 75 0 95 10 74 35 -15 18 -155 21
-165 5z"/>
<path d="M262 1258 c-27 -27 -1 -59 63 -76 22 -5 65 -17 95 -25 284 -79 353
-97 380 -97 36 0 37 -23 2 -28 -29 -4 -49 -29 -34 -44 12 -12 100 4 133 25 12
8 30 5 67 -11 28 -12 62 -22 75 -22 14 0 41 -7 60 -15 57 -23 95 -20 103 9 10
43 -4 66 -39 66 -44 0 -178 41 -171 52 11 18 180 -19 204 -44 19 -20 19 -20
49 -2 19 12 27 24 23 31 -9 14 -99 24 -260 28 -84 3 -118 7 -130 19 -12 10
-29 13 -58 9 -28 -3 -60 1 -100 15 -89 31 -410 122 -431 122 -11 0 -24 -5 -31
-12z"/>
<path d="M5515 1224 c-82 -24 -188 -56 -234 -70 -56 -17 -96 -24 -119 -20 -25
4 -39 1 -46 -10 -9 -11 -39 -16 -131 -18 -257 -8 -303 -18 -256 -57 28 -23 61
-25 61 -4 0 22 184 65 203 46 7 -7 -95 -41 -170 -56 -33 -6 -49 -37 -37 -69 8
-20 53 -21 101 -1 19 8 47 15 62 15 14 0 46 9 70 20 46 21 81 26 81 11 0 -8
22 -15 98 -28 28 -4 32 -2 32 16 0 15 -9 23 -32 29 -43 11 -49 32 -8 32 27 0
102 19 380 97 30 8 74 19 96 25 52 12 83 42 68 66 -18 28 -61 23 -219 -24z"/>
<path d="M773 1227 c-42 -8 -53 -14 -53 -29 0 -17 7 -18 65 -17 71 2 102 16
92 43 -7 18 -26 18 -104 3z"/>
<path d="M5130 1225 c-21 -26 3 -39 80 -43 65 -4 70 -3 70 16 0 21 -7 24 -96
37 -30 5 -44 2 -54 -10z"/>
<path d="M2560 1016 c-15 -7 -20 -19 -20 -45 0 -20 -7 -88 -15 -151 -14 -114
-21 -173 -31 -260 -2 -25 -11 -94 -19 -155 -8 -60 -16 -132 -19 -160 -8 -73
-15 -127 -21 -155 -10 -52 -29 -51 560 -51 589 0 571 -1 560 51 -7 31 -17 116
-30 240 -2 19 -9 73 -14 120 -6 47 -13 110 -16 140 -3 30 -7 71 -10 90 -3 19
-7 58 -10 85 -13 137 -28 241 -35 248 -10 12 -855 14 -880 3z m824 -64 c2 -4
7 -36 11 -72 3 -36 15 -139 25 -230 11 -91 24 -208 30 -260 12 -110 28 -235
36 -268 l4 -22 -495 0 c-468 0 -496 1 -491 18 6 16 62 481 86 707 6 61 13 116
16 123 3 9 89 12 388 12 212 0 387 -3 390 -8z"/>
<path d="M4980 969 c0 -5 11 -9 25 -9 14 0 25 2 25 4 0 2 -11 6 -25 8 -14 3
-25 1 -25 -3z"/>
<path d="M863 941 c-64 -20 -82 -36 -65 -53 9 -9 24 -9 64 1 62 16 78 27 78
52 0 22 -8 22 -77 0z"/>
<path d="M5056 951 c-11 -17 29 -48 76 -61 87 -23 94 21 8 50 -63 22 -77 24
-84 11z"/>
<path d="M1535 923 c-131 -52 -200 -171 -200 -343 0 -74 4 -91 27 -131 50 -84
176 -174 236 -167 22 2 28 9 30 35 3 28 0 32 -35 43 -65 21 -127 71 -162 130
-16 26 -21 52 -21 103 0 37 4 75 8 85 46 96 62 120 106 150 44 29 55 32 127
32 44 0 79 -4 79 -8 0 -5 15 -16 34 -24 45 -22 104 -74 122 -109 25 -48 18
-108 -18 -161 -53 -77 -126 -104 -199 -74 -72 30 -112 103 -85 155 20 38 26
42 81 43 56 1 68 -9 69 -59 1 -33 4 -38 27 -41 56 -6 79 65 38 116 -38 49 -69
62 -144 62 -61 0 -74 -3 -98 -25 -92 -86 -68 -230 51 -306 39 -25 56 -29 113
-29 67 0 169 25 169 42 0 5 9 19 20 31 37 39 72 123 72 171 0 57 -38 141 -84
187 -30 30 -87 63 -153 89 -43 18 -169 19 -210 3z"/>
<path d="M4274 921 c-141 -25 -198 -73 -245 -207 -27 -75 -27 -188 -1 -248 25
-56 93 -121 162 -157 67 -34 105 -37 120 -10 15 30 2 50 -42 63 -45 13 -141
95 -163 139 -22 42 -19 137 7 200 31 76 45 96 94 130 38 26 51 29 118 29 67 0
80 -3 123 -32 100 -65 133 -109 133 -177 0 -62 -62 -161 -101 -161 -10 0 -21
-4 -24 -10 -11 -17 -73 -11 -112 11 -61 34 -77 56 -77 110 0 64 15 79 76 79
59 0 77 -15 75 -61 -2 -32 0 -34 33 -34 30 0 35 4 43 31 12 42 -14 97 -58 124
-24 15 -50 20 -102 20 -67 0 -71 -2 -110 -37 -37 -35 -41 -43 -47 -105 -7 -72
-10 -65 57 -143 39 -47 105 -75 174 -75 119 0 173 36 225 147 27 56 30 71 24
119 -6 56 -34 123 -65 158 -17 19 -98 73 -141 93 -43 20 -82 21 -176 4z"/>
<path d="M925 860 c-11 -4 -35 -14 -52 -20 -18 -7 -33 -19 -33 -28 0 -12 10
-14 57 -8 58 7 83 19 83 41 0 10 -25 28 -33 24 -1 0 -11 -4 -22 -9z"/>
<path d="M5030 860 c-12 -7 -12 -13 -4 -27 13 -20 44 -31 97 -32 57 -1 46 29
-18 51 -61 20 -57 20 -75 8z"/>
<path d="M218 763 c-23 -6 -33 -40 -17 -59 12 -14 61 -16 416 -13 222 2 403 0
403 -4 0 -4 -20 -16 -45 -27 -45 -19 -58 -43 -30 -54 18 -7 114 33 117 48 0 6
2 18 2 26 1 12 15 14 74 11 77 -3 102 6 102 40 0 10 -9 23 -19 29 -19 10 -965
13 -1003 3z"/>
<path d="M4768 759 c-25 -14 -23 -56 3 -64 12 -4 53 -5 92 -3 67 3 70 2 72
-19 2 -27 -1 -24 57 -51 48 -22 78 -21 78 4 0 14 -29 33 -67 43 -12 3 -24 10
-25 16 -2 7 131 9 390 6 364 -3 394 -2 413 14 24 23 24 41 0 55 -27 14 -989
13 -1013 -1z"/>
<path d="M1043 584 c-36 -17 -53 -31 -53 -44 0 -30 14 -31 73 -5 62 27 74 40
57 60 -15 18 -14 19 -77 -11z"/>
<path d="M4881 601 c-22 -14 -7 -34 49 -65 46 -25 54 -27 67 -13 20 20 11 33
-47 62 -56 29 -51 27 -69 16z"/>
<path d="M1112 503 c-22 -13 -63 -30 -93 -37 -65 -17 -178 -49 -274 -76 -154
-44 -224 -64 -303 -85 -90 -25 -112 -38 -112 -66 0 -35 35 -42 103 -21 34 10
98 29 142 42 44 12 107 30 140 40 33 10 96 28 140 40 161 46 280 84 283 92 5
12 42 10 42 -2 0 -6 -13 -19 -30 -28 -32 -18 -39 -39 -15 -48 20 -8 104 46
111 71 4 11 15 30 26 42 16 17 18 25 9 42 -16 29 -115 26 -169 -6z"/>
<path d="M4710 510 c-9 -17 -6 -24 13 -43 13 -12 27 -32 31 -44 4 -13 12 -23
18 -23 5 0 23 -11 40 -25 32 -27 53 -32 64 -13 4 6 -7 23 -27 39 -36 29 -34
49 4 32 52 -24 76 -33 142 -52 139 -40 221 -64 285 -82 145 -41 218 -62 277
-81 74 -23 106 -14 101 30 -3 26 -11 29 -258 99 -314 90 -398 114 -430 120
-31 6 -67 22 -104 47 -22 15 -33 17 -46 9 -10 -7 -22 -8 -31 -2 -25 16 -68 10
-79 -11z"/>
<path d="M1880 365 c0 -46 47 -165 102 -258 24 -40 46 -80 50 -89 5 -13 18
-18 44 -18 l36 0 -41 46 c-49 56 -119 193 -154 304 -19 56 -37 64 -37 15z"/>
<path d="M1238 343 c-49 -36 -64 -73 -30 -73 27 0 112 69 112 91 0 28 -29 22
-82 -18z"/>
<path d="M4673 363 c-4 -11 0 -21 11 -27 10 -6 34 -24 54 -39 36 -28 72 -33
79 -10 5 14 -99 93 -122 93 -9 0 -19 -8 -22 -17z"/>
<path d="M4100 306 c0 -29 -100 -213 -141 -259 l-41 -47 36 0 c27 0 38 6 48
24 7 14 34 63 61 109 48 87 70 168 48 181 -6 4 -11 1 -11 -8z"/>
<path d="M1315 268 c-52 -43 -64 -71 -30 -75 28 -4 120 79 112 101 -10 24 -27
19 -82 -26z"/>
<path d="M4603 303 c-24 -9 -13 -32 32 -63 25 -17 45 -36 45 -41 0 -14 52 -7
57 7 3 10 -102 105 -116 103 -3 0 -12 -3 -18 -6z"/>
<path d="M1387 197 c-50 -44 -56 -57 -33 -76 11 -9 25 -2 67 34 30 25 54 54
54 63 0 32 -39 23 -88 -21z"/>
<path d="M4523 224 c-7 -18 82 -103 109 -104 35 0 29 23 -18 71 -49 50 -80 61
-91 33z"/>
<path d="M1466 129 c-49 -51 -54 -72 -20 -77 26 -4 119 90 111 112 -11 29 -42
17 -91 -35z"/>
<path d="M4447 173 c-16 -16 -4 -42 37 -81 83 -79 119 -42 40 41 -43 45 -63
55 -77 40z"/>
<path d="M1559 63 c-54 -58 -54 -58 -27 -61 29 -3 101 45 113 75 5 15 -11 43
-25 43 -4 0 -31 -26 -61 -57z"/>
<path d="M4362 108 c-19 -19 -15 -31 26 -71 36 -35 92 -52 92 -27 0 10 -90
110 -99 110 -4 0 -12 -5 -19 -12z"/>
<path d="M1665 30 l-30 -31 45 3 c40 3 45 6 45 28 0 36 -26 36 -60 0z"/>
<path d="M4272 33 c3 -24 8 -28 41 -31 l39 -3 -23 30 c-30 40 -62 42 -57 4z"/>
<path d="M1780 10 c0 -5 9 -10 21 -10 11 0 17 4 14 10 -8 13 -35 13 -35 0z"/>
<path d="M4185 10 c-3 -5 3 -10 14 -10 12 0 21 5 21 10 0 6 -6 10 -14 10 -8 0
-18 -4 -21 -10z"/>
</g>
</svg>
